inDegrees=no
num_controls=7
num_derivatives=13
num_iterations=148
num_multipliers=7
num_parameters=0
num_slacks=7
num_states=26
objective=5.864510
objective_accelerations=0.610837
objective_balance=0.018387
objective_effort=0.468164
objective_height=4.643189
objective_ligament=0.123934
solver_duration=1233.410961
status=Solve_Succeeded
success=true
DataType=double
version=3
OpenSimVersion=4.4-2022-07-23-0e9fedc
endheader
time	/jointset/ground_pelvis/pelvis_tilt/value	/jointset/ground_pelvis/pelvis_tx/value	/jointset/ground_pelvis/pelvis_ty/value	/jointset/hip_r/hip_flexion_r/value	/jointset/hip_r/hip_adduction_r/value	/jointset/hip_r/hip_rotation_r/value	/jointset/back/lumbar_extension/value	/jointset/patellofemoral_r/patellar_flexion_r/value	/jointset/knee_r/knee_flexion_r/value	/jointset/knee_r/knee_adduction_r/value	/jointset/knee_r/knee_rotation_r/value	/jointset/ankle_r/ankle_angle_r/value	/jointset/subtalar_r/subtalar_angle_r/value	/jointset/ground_pelvis/pelvis_tilt/speed	/jointset/ground_pelvis/pelvis_tx/speed	/jointset/ground_pelvis/pelvis_ty/speed	/jointset/hip_r/hip_flexion_r/speed	/jointset/hip_r/hip_adduction_r/speed	/jointset/hip_r/hip_rotation_r/speed	/jointset/back/lumbar_extension/speed	/jointset/patellofemoral_r/patellar_flexion_r/speed	/jointset/knee_r/knee_flexion_r/speed	/jointset/knee_r/knee_adduction_r/speed	/jointset/knee_r/knee_rotation_r/speed	/jointset/ankle_r/ankle_angle_r/speed	/jointset/subtalar_r/subtalar_angle_r/speed	/forceset/tau_hip_flexion_r	/forceset/tau_hip_adduction_r	/forceset/tau_hip_rotation_r	/forceset/tau_knee_flexion_r	/forceset/tau_ankle_angle_r	/forceset/tau_subtalar_angle_r	/forceset/tau_lumbar_extension	lambda_cid13_p0	lambda_cid14_p0	lambda_cid14_p1	lambda_cid14_p2	lambda_cid14_p3	lambda_cid14_p4	lambda_cid14_p5	/jointset/ground_pelvis/pelvis_tilt/accel	/jointset/ground_pelvis/pelvis_tx/accel	/jointset/ground_pelvis/pelvis_ty/accel	/jointset/hip_r/hip_flexion_r/accel	/jointset/hip_r/hip_adduction_r/accel	/jointset/hip_r/hip_rotation_r/accel	/jointset/back/lumbar_extension/accel	/jointset/patellofemoral_r/patellar_flexion_r/accel	/jointset/knee_r/knee_flexion_r/accel	/jointset/knee_r/knee_adduction_r/accel	/jointset/knee_r/knee_rotation_r/accel	/jointset/ankle_r/ankle_angle_r/accel	/jointset/subtalar_r/subtalar_angle_r/accel	gamma_cid13_p0	gamma_cid14_p0	gamma_cid14_p1	gamma_cid14_p2	gamma_cid14_p3	gamma_cid14_p4	gamma_cid14_p5
1	-0.2499043024940128	-0.00603552708011118	0.63922109970995	1.425759524463472	-0.253510553682821	0.1204626360086876	-0.7853978186858587	1.512683219636739	1.512683219636728	0.05978143249808969	0.1745306572550537	0.4362485314235783	0.1419492751898033	0.07298244224314623	0.005815456188248353	0.01589523961629519	-0.1051195390565111	-0.00186849698219103	-0.01003108321852537	-0.0001185359912189019	-0.01826302781334167	-0.01826302781334218	-0.002738671811744827	-2.414681036559301e-05	0.013838074305406	0.003067107619950316	-0.3436630607384775	0.009870793971543484	0.05401104340473094	-0.4577664486801105	-0.03810147032468705	-0.01201589288674626	0.3628555683968336	-0.03988788953144162	-64.50500770752598	-18.18804992025562	5.23507389798068	8.122685302514428	-767.6941026421946	77.06645641763082	1.400634716198368	0.1667112290287927	1.780015941776244	-5.475060669865838	-0.1330344540417632	-1.707692821572873	-0.01656688975034645	-4.937012960397661	-4.93701296039764	-0.006001296935050644	0.00598988897331169	-1.09774474777294	-0.7103835628570959	-3.946239680599814e-10	-3.6733370635371e-10	-7.479398029410809e-09	5.289298639448731e-10	1.967711799597433e-10	-4.374611567715178e-09	-1.856616636168963e-08
1.01	-0.2491054065044481	-0.005968974474172244	0.6394688232574198	1.424435841248953	-0.2535357005832198	0.1202766767705618	-0.7853980799910179	1.512254113421697	1.512254113421712	0.05975308176568391	0.1745303792330632	0.4363321850869885	0.1419448560056696	0.0867702470341325	0.007504962367019596	0.03363983560818329	-0.1595846083971078	-0.003160439006889684	-0.02715492299969979	0.0001618637893516002	-0.06754066193521964	-0.06754066193521978	-0.002931479449900832	-2.643003619694875e-05	0.002905383976594428	-0.003944177578975594	-0.3436341471750154	0.009900894575427087	0.05399282626142751	-0.457705580095594	-0.03808452546223928	-0.01199705401941276	0.3631026567047503	-0.03988973016867487	-64.4938450907413	-18.1782652850725	5.233915391573507	7.990291993537316	-767.7146940583121	77.0547573259477	1.363876809979689	0.1715550040708244	1.770234796565643	-5.427356151983141	-0.1272080066174816	-1.713855554988864	0.06468176031346626	-4.9205052163628	-4.920505216362702	-0.02591958592943197	-0.002586265448083804	-1.089122136497832	-0.6954880437541689	-2.145119197374811e-09	-9.74676754156664e-10	-5.579406198625561e-09	-1.000717068408755e-08	4.297337053446227e-10	-7.423711870776013e-09	-2.608949493734335e-08
1.02	-0.2481694277770868	-0.005885229868091217	0.6398937034385422	1.422568482123879	-0.253573753689854	0.1199196539349357	-0.7853926696304526	1.511332757549779	1.511332757549801	0.05972280313905207	0.1745302286112395	0.4363068936553109	0.1418705265604776	0.100398989802354	0.009253856216666877	0.05132656634686123	-0.2138547211707668	-0.004449738228949477	-0.04424380272484527	0.001015797503997088	-0.1167129591882945	-0.116712959188295	-0.003124250634996368	1.333254498767284e-06	-0.007950944794716613	-0.01091494459165175	-0.3436052336114754	0.009930995179384474	0.05397460911851099	-0.4576447115110563	-0.03806758059978394	-0.01197821515194578	0.3633497450127412	-0.03989544918097786	-64.49008809151896	-18.16823874632485	5.230961207787466	7.864350691942381	-767.8717475374375	77.0326264277348	1.368822311645361	0.1785887632040826	1.768442891134209	-5.436069356478335	-0.1325058935141415	-1.700700810367204	0.09813989706379062	-4.915945586636981	-4.915945586637112	-0.005994006322879341	0.01199919227907861	-1.082472436272705	-0.7022799256073645	-3.301166059518468e-09	-3.27292679268084e-09	-4.316107142255259e-09	-1.946461994963389e-08	4.737932129731549e-09	-1.283034571812061e-08	-3.189235183844931e-08
1.03	-0.2470981998708997	-0.005783660051748764	0.6404951873954713	1.420159488119169	-0.2536246304724458	0.1193919636731241	-0.785374724876663	1.509919933149129	1.509919933149132	0.05969064533907967	0.1745304172871582	0.4361732933308408	0.1417267601585629	0.1137952234548357	0.01107410678771996	0.06896320128652507	-0.2679022471373564	-0.005720386526461647	-0.06128428742451539	0.002782591470073328	-0.1658619048306972	-0.1658619048306978	-0.003301638024124724	3.453263817635456e-05	-0.01876929194025845	-0.01782642253158132	-0.3444977274282706	0.01017341989507837	0.05391303501904875	-0.4569916802454954	-0.03905140909880627	-0.01188098390626131	0.3645180835614262	-0.03991657485468653	-64.8326497803567	-18.16984909343821	5.212779519871744	7.923366726277556	-768.5323854082168	76.94086647712172	1.31731864786646	0.1858450084829603	1.760216547466127	-5.382819831319742	-0.1235624595583913	-1.704233196083395	0.2473648742903173	-4.915865739261794	-4.915865739261713	-0.02275652432452701	-0.001307071660415473	-1.081541996160396	-0.683798608056898	-4.451147121997112e-09	-5.588430984171567e-09	-3.059304950930011e-09	-2.891106256944056e-08	9.087714593904236e-09	-1.826103603020281e-08	-3.76776529061415e-08
1.04	-0.2458945506770236	-0.005663467368810013	0.6412728262522135	1.417211273731848	-0.2536880573703536	0.1186941663850549	-0.7853328290374432	1.508015319954811	1.508015319954814	0.05965688458135735	0.1745308804799316	0.4359315043064004	0.1415142356012746	0.12688324733998	0.01297842953592671	0.0865575463094973	-0.321698797686776	-0.006959761291517202	-0.07826520797684579	0.005806014552565063	-0.2150707179218946	-0.2150707179218944	-0.003444842177921169	5.623669894645535e-05	-0.02958868478441483	-0.02466657566635126	-0.3453902212452295	0.01041584461076687	0.05385146091970563	-0.4563386489799348	-0.04003523759780617	-0.01178375266057947	0.3656864221099576	-0.03994150681138327	-65.18275840338717	-18.1712926217964	5.192871627273449	7.987315319969902	-769.3321939819973	76.83889297697451	1.307180358177837	0.1954031986348651	1.759984907795909	-5.38587427304439	-0.1262511870226003	-1.688787980899028	0.3494657203462966	-4.927919076395958	-4.927919076395897	0.0008426407434044097	0.009700127696990048	-1.082681575995462	-0.6880149645749617	-6.11901921104368e-09	-6.033635285753508e-09	-3.022011377608544e-09	-3.880513522691485e-08	9.178228466858682e-09	-2.090952822158799e-08	-4.710178284643763e-08
1.05	-0.2445614760767079	-0.005523802464820191	0.6422261020201105	1.41372647411576	-0.253763673383059	0.1178269509059405	-0.7852547884763905	1.505618507935327	1.505618507935316	0.05962182706123972	0.1745314763472052	0.4355815105090481	0.1412337729565136	0.1396857860509897	0.01496936468235184	0.1040807031626444	-0.3752033321493273	-0.008153099146262992	-0.09515858233029795	0.009978261786857101	-0.2642828662272866	-0.2642828662272851	-0.003564845982110119	5.753995507834713e-05	-0.04041109092635525	-0.03140302031281677	-0.3455841629730102	0.01058530478463281	0.05377106702988116	-0.4555197647235243	-0.04055035883907284	-0.01170004472826267	0.366263733793481	-0.0399766506343493	-65.3379026465698	-18.14337939396834	5.167034594596436	7.942996499176273	-769.4728822111686	76.7246958643692	1.25990739307014	0.2031625124382667	1.745940737975866	-5.324074819898521	-0.1143291528977571	-1.686724799195828	0.4775288435153283	-4.916538168018944	-4.916538168018706	-0.01814331387496634	-0.005475602423130966	-1.082172784313564	-0.6630255395339867	-7.803075394670493e-09	-6.420392715775809e-09	-3.022827448599688e-09	-4.871319632306626e-08	9.135640196337581e-09	-2.34710767217014e-08	-5.663962618900259e-08
